# xmcd
#
# Track frame offsets: 
#        150
#        18462
#        33111
#        47836
#        62659
#        77566
#        92454
#        112823
#        130218
#        147423
#        161102
#        172735
#
# Disc length: 2513 seconds
#
# Revision: 0
# Processed by: cddbd v1.5.2PL0 Copyright (c) Steve Scherf et al.
# Submitted via: ExactAudioCopy v1.0b1
#
DISCID=8e09cf0c
DTITLE=The Rev. Jimmie Bratcher - Secretly Famous
DYEAR=2013
DGENRE=Blues
TTITLE0=Jupiter and Mars
TTITLE1=57
TTITLE2=Feels Like Friday
TTITLE3=It Just Feels Right
TTITLE4=Check Your Blues At The Door
TTITLE5=Tobacco Road
TTITLE6=Nowhere To Go But Down
TTITLE7=When I Fall Apart
TTITLE8=Never My Love
TTITLE9=I Can't Shake That Thing
TTITLE10=Bologna Sandwich Man
TTITLE11=Starting All Over Again
EXTD=
EXTT0=
EXTT1=
EXTT2=
EXTT3=
EXTT4=
EXTT5=
EXTT6=
EXTT7=
EXTT8=
EXTT9=
EXTT10=
EXTT11=
PLAYORDER=
